X Lossless Decoder version 20110417 (131.0)

XLD extraction logfile from 2011-04-18 08:57:48 +0900

Perfume / 不自然なガール／ナチュラルに恋して

Used drive : MATSHITA DVD-R   UJ-868 (revision KB19)

Ripper mode             : CDParanoia III 10.2
Disable audio cache     : OK for the drive with a cache less than 2750KiB
Make use of C2 pointers : NO
Read offset correction  : 102
Max retry count         : 100
Gap status              : Analyzed, Appended

TOC of the extracted CD
     Track |   Start  |  Length  | Start sector | End sector 
    ---------------------------------------------------------
        1  | 00:00:00 | 03:59:21 |         0    |    17945   
        2  | 03:59:21 | 03:08:31 |     17946    |    32076   
        3  | 07:07:52 | 03:57:73 |     32077    |    49924   
        4  | 11:05:50 | 03:04:44 |     49925    |    63768   

AccurateRip Summary
    Track 01 : OK (confidence 31)
    Track 02 : OK (confidence 29)
    Track 03 : OK (confidence 26)
    Track 04 : OK (confidence 24)
        ->All tracks accurately ripped.

All Tracks
    Filename : /Users/m4c/Public/flac/不自然なガール／ナチュラルに恋して.flac
    CRC32 hash             : 302FB6D0
    CRC32 hash (skip zero) : 9CF4DC15
    Statistics
        Read error                           : 0
        Skipped (treated as error)           : 0
        Edge jitter error (maybe fixed)      : 0
        Atom jitter error (maybe fixed)      : 0
        Drift error (maybe fixed)            : 0
        Dropped bytes error (maybe fixed)    : 0
        Duplicated bytes error (maybe fixed) : 0

Track 01
    Pre-gap length : 00:02:00

    CRC32 hash             : 047BD342
    CRC32 hash (skip zero) : F5585284
    AccurateRip signature  : 5D9EB52A
        ->Accurately ripped! (confidence 31)
    Statistics
        Read error                           : 0
        Skipped (treated as error)           : 0
        Edge jitter error (maybe fixed)      : 0
        Atom jitter error (maybe fixed)      : 0
        Drift error (maybe fixed)            : 0
        Dropped bytes error (maybe fixed)    : 0
        Duplicated bytes error (maybe fixed) : 0

Track 02

    CRC32 hash             : 267A83CA
    CRC32 hash (skip zero) : D8EDCAB8
    AccurateRip signature  : 5C8174EE
        ->Accurately ripped! (confidence 29)
    Statistics
        Read error                           : 0
        Skipped (treated as error)           : 0
        Edge jitter error (maybe fixed)      : 0
        Atom jitter error (maybe fixed)      : 0
        Drift error (maybe fixed)            : 0
        Dropped bytes error (maybe fixed)    : 0
        Duplicated bytes error (maybe fixed) : 0

Track 03

    CRC32 hash             : 4C42BDAE
    CRC32 hash (skip zero) : 7F03E618
    AccurateRip signature  : A9DE4488
        ->Accurately ripped! (confidence 26)
    Statistics
        Read error                           : 0
        Skipped (treated as error)           : 0
        Edge jitter error (maybe fixed)      : 0
        Atom jitter error (maybe fixed)      : 0
        Drift error (maybe fixed)            : 0
        Dropped bytes error (maybe fixed)    : 0
        Duplicated bytes error (maybe fixed) : 0

Track 04

    CRC32 hash             : B8FF7ED2
    CRC32 hash (skip zero) : A461C33A
    AccurateRip signature  : BCB04062
        ->Accurately ripped! (confidence 24)
    Statistics
        Read error                           : 0
        Skipped (treated as error)           : 0
        Edge jitter error (maybe fixed)      : 0
        Atom jitter error (maybe fixed)      : 0
        Drift error (maybe fixed)            : 0
        Dropped bytes error (maybe fixed)    : 0
        Duplicated bytes error (maybe fixed) : 0

No errors occurred

End of status report
